<svg width="11" height="13" viewBox="0 0 11 13" fill="none" xmlns="http://www.w3.org/2000/svg">
<path d="M9.19657 6.87005C9.19027 5.80446 9.67654 5.00137 10.6585 4.4092C10.1093 3.62798 9.2784 3.19831 8.18312 3.1155C7.14607 3.03426 6.01144 3.71548 5.59599 3.71548C5.15694 3.71548 4.15293 3.14363 3.36295 3.14363C1.73262 3.16863 0 4.4342 0 7.0091C0 7.77001 0.140057 8.55592 0.420172 9.36526C0.794707 10.4308 2.14492 13.0417 3.55336 12.9995C4.28984 12.9823 4.81073 12.4808 5.7691 12.4808C6.69914 12.4808 7.18069 12.9995 8.00215 12.9995C9.42318 12.9792 10.6443 10.6058 11 9.53713C9.09428 8.64498 9.19657 6.92473 9.19657 6.87005ZM7.54263 2.10461C8.34049 1.16402 8.2681 0.307801 8.24449 0C7.53948 0.0406234 6.72432 0.476544 6.26009 1.01246C5.74864 1.58744 5.44807 2.29835 5.51259 3.09988C6.27425 3.15769 6.96981 2.76864 7.54263 2.10461Z" fill="white"/>
</svg>
