<svg width="262" height="262" viewBox="0 0 262 262" fill="none" xmlns="http://www.w3.org/2000/svg">
<rect width="262" height="262" fill="#71883A"/>
<path d="M216 46H46V216H216V46Z" fill="#231F20"/>
<path d="M99.6935 119.092C99.6607 120.742 99.3202 122.371 98.6896 123.895C97.9098 125.759 96.5856 127.345 94.8902 128.444C95.9641 128.938 96.9521 129.6 97.817 130.405C99.3517 131.844 100.456 133.681 101.006 135.711C101.263 136.626 101.396 137.571 101.4 138.522C101.394 140.219 101.134 141.906 100.628 143.526C100.128 145.167 99.2651 146.674 98.1027 147.935C96.7669 149.334 95.1368 150.418 93.3303 151.109C90.9611 151.979 88.4474 152.388 85.9246 152.314H67.3909V106.528H85.7238C87.603 106.511 89.4667 106.868 91.2067 107.578C92.8411 108.232 94.3451 109.173 95.647 110.358C96.8959 111.488 97.9067 112.856 98.6201 114.381C99.3249 115.852 99.6917 117.461 99.6935 119.092ZM76.4724 124.39H84.7122C86.0908 124.451 87.4501 124.048 88.5734 123.247C89.0452 122.895 89.4256 122.435 89.6823 121.906C89.939 121.376 90.0646 120.792 90.0483 120.204C90.0526 119.589 89.9228 118.98 89.6681 118.42C89.4134 117.86 89.0398 117.362 88.5734 116.961C87.5017 116.043 86.1219 115.565 84.7122 115.625H76.4724V124.39ZM84.7817 143.232C87.2683 143.232 89.0547 142.764 90.141 141.827C90.6465 141.436 91.0565 140.935 91.3401 140.363C91.6238 139.79 91.7735 139.161 91.7781 138.522C91.7797 137.874 91.67 137.232 91.4538 136.622C91.2299 136.001 90.8464 135.449 90.3418 135.023C89.7087 134.502 88.9714 134.123 88.1795 133.911C87.0743 133.602 85.9291 133.458 84.7817 133.487H76.4724V143.232H84.7817Z" fill="white"/>
<path d="M150.205 152.321H139.077L126.652 134.861H121.154V152.321H112.126V106.528H130.66C132.519 106.521 134.36 106.9 136.066 107.64C137.736 108.365 139.255 109.397 140.545 110.682C141.838 111.976 142.884 113.493 143.634 115.161C144.402 116.892 144.792 118.766 144.777 120.66C144.809 123.396 144.036 126.082 142.553 128.382C141.148 130.605 139.124 132.368 136.73 133.456L150.205 152.321ZM128.938 125.826C131.255 125.826 132.956 125.311 134.043 124.282C134.558 123.828 134.971 123.27 135.253 122.644C135.536 122.018 135.681 121.339 135.68 120.652C135.682 119.974 135.537 119.305 135.252 118.689C134.968 118.074 134.553 117.529 134.035 117.092C132.943 116.109 131.242 115.62 128.93 115.625H121.154V125.826H128.938Z" fill="white"/>
<path d="M176.438 152.785C173.974 152.814 171.529 152.358 169.241 151.441C167.143 150.605 165.24 149.346 163.65 147.742C162.071 146.132 160.834 144.22 160.013 142.12C159.121 139.827 158.678 137.383 158.708 134.923V106.528H167.735V133.741C167.716 135.159 167.959 136.567 168.453 137.896C168.882 139.061 169.538 140.13 170.384 141.039C171.17 141.872 172.115 142.539 173.164 143.001C174.195 143.454 175.309 143.688 176.434 143.688C177.56 143.688 178.674 143.454 179.705 143.001C180.756 142.543 181.702 141.876 182.485 141.039C183.331 140.13 183.987 139.061 184.416 137.896C184.91 136.567 185.153 135.159 185.134 133.741V106.528H194.269V134.923C194.299 137.383 193.856 139.827 192.964 142.12C192.141 144.226 190.892 146.14 189.296 147.742C187.689 149.34 185.777 150.598 183.674 151.441C181.374 152.362 178.915 152.818 176.438 152.785Z" fill="white"/>
<path d="M175.11 101.385C175.113 102.262 174.856 103.121 174.371 103.852C173.885 104.583 173.194 105.153 172.385 105.491C171.575 105.829 170.683 105.919 169.822 105.75C168.961 105.58 168.17 105.159 167.549 104.54C166.927 103.921 166.504 103.131 166.331 102.271C166.159 101.41 166.246 100.518 166.581 99.7075C166.916 98.8967 167.484 98.2035 168.213 97.7157C168.943 97.228 169.8 96.9676 170.678 96.9676C171.85 96.9676 172.976 97.4325 173.806 98.2604C174.637 99.0884 175.106 100.212 175.11 101.385Z" fill="white"/>
<path d="M186.771 101.385C186.776 102.264 186.519 103.125 186.033 103.859C185.548 104.592 184.856 105.165 184.044 105.504C183.233 105.844 182.339 105.935 181.476 105.765C180.613 105.596 179.819 105.174 179.196 104.553C178.573 103.932 178.149 103.141 177.976 102.278C177.804 101.416 177.892 100.521 178.228 99.7087C178.565 98.8961 179.135 98.2018 179.867 97.7138C180.599 97.2258 181.459 96.9661 182.338 96.9676C183.511 96.9676 184.636 97.4325 185.467 98.2604C186.298 99.0884 186.767 100.212 186.771 101.385Z" fill="white"/>
</svg>
